<?xml version="1.0" encoding="utf-8"?>
<!-- Generator: Adobe Illustrator 16.0.4, SVG Export Plug-In . SVG Version: 6.00 Build 0)  -->
<!DOCTYPE svg PUBLIC "-//W3C//DTD SVG 1.0//EN" "http://www.w3.org/TR/2001/REC-SVG-20010904/DTD/svg10.dtd">
<svg version="1.0" id="Layer_1" xmlns="http://www.w3.org/2000/svg" xmlns:xlink="http://www.w3.org/1999/xlink" x="0px" y="0px"
	 width="411.167px" height="25.666px" viewBox="0 0 411.167 25.666" enable-background="new 0 0 411.167 25.666"
	 xml:space="preserve">
<g>
	<path fill="#FFFFFF" d="M11.806,9.272v1.848H5.47v5.472h11.064v1.848H3.382V2.768h12.6v1.848H5.47v4.656H11.806z"/>
	<path fill="#FFFFFF" d="M21.118,18.44h-2.16L26.23,2.768h1.968L35.47,18.44h-2.28l-2.136-4.704H23.23L21.118,18.44z M27.07,5.216
		l-3.096,6.84h6.336l-3.096-6.84H27.07z"/>
	<path fill="#FFFFFF" d="M36.166,4.616V2.768h14.256v1.848H44.35V18.44h-2.088V4.616H36.166z"/>
	<path fill="#FFFFFF" d="M62.518,18.44h-2.088V2.768h12.384v1.848H62.518v4.8h6.336v1.848h-6.336V18.44z"/>
	<path fill="#FFFFFF" d="M75.19,18.44h-2.16l7.272-15.672h1.968l7.272,15.672h-2.28l-2.136-4.704h-7.824L75.19,18.44z M81.142,5.216
		l-3.096,6.84h6.336l-3.096-6.84H81.142z"/>
	<path fill="#FFFFFF" d="M90.238,4.616V2.768h14.256v1.848h-6.072V18.44h-2.088V4.616H90.238z"/>
	<path fill="#FFFFFF" d="M104.83,22.808l-0.576-1.224c0.688-0.192,1.348-0.532,1.98-1.02c0.632-0.488,0.948-1.036,0.948-1.644
		c0-0.32-0.096-0.504-0.288-0.552c-0.256,0.064-0.464,0.096-0.624,0.096c-0.416,0-0.768-0.124-1.056-0.372
		c-0.288-0.248-0.432-0.556-0.432-0.924c0-0.368,0.144-0.676,0.432-0.924c0.288-0.248,0.64-0.372,1.056-0.372
		c0.656,0,1.224,0.244,1.704,0.732c0.48,0.488,0.72,1.092,0.72,1.812C108.694,20.48,107.406,21.944,104.83,22.808z"/>
	<path fill="#FFFFFF" d="M133.749,5l-1.44,1.296c-0.688-0.64-1.54-1.148-2.556-1.524c-1.017-0.376-2.021-0.564-3.012-0.564
		c-1.84,0-3.372,0.62-4.596,1.86c-1.224,1.24-1.836,2.756-1.836,4.548c0,1.76,0.608,3.264,1.824,4.512
		c1.216,1.248,2.816,1.872,4.8,1.872c0.944,0,1.876-0.136,2.796-0.408c0.92-0.272,1.676-0.648,2.268-1.128v-3.72h-5.088V9.896h6.984
		v6.576c-0.944,0.736-2.048,1.316-3.312,1.74c-1.264,0.424-2.52,0.636-3.768,0.636c-2.448,0-4.508-0.804-6.18-2.412
		c-1.672-1.608-2.508-3.556-2.508-5.844c0-2.288,0.832-4.232,2.496-5.832c1.664-1.6,3.696-2.4,6.096-2.4
		C129.325,2.36,131.669,3.24,133.749,5z"/>
	<path fill="#FFFFFF" d="M147.933,9.272v1.848h-6.336v5.472h11.064v1.848h-13.153V2.768h12.6v1.848h-10.512v4.656H147.933z"/>
	<path fill="#FFFFFF" d="M155.039,4.616V2.768h14.256v1.848h-6.072V18.44h-2.088V4.616H155.039z"/>
	<path fill="#FFFFFF" d="M175.941,4.616V2.768h14.256v1.848h-6.072V18.44h-2.088V4.616H175.941z"/>
	<path fill="#FFFFFF" d="M196.414,18.44h-2.088V2.768h2.088v6.24h9.623v-6.24h2.064V18.44h-2.064v-7.584h-9.623V18.44z"/>
	<path fill="#FFFFFF" d="M216.501,18.44h-2.088V2.768h2.088V18.44z"/>
	<path fill="#FFFFFF" d="M234.667,2.768h2.088V18.44h-1.896L224.9,6.416h-0.023V18.44h-2.088V2.768h1.895l9.961,12.024h0.023V2.768z
		"/>
</g>
<g>
	<path fill="#FFFFFF" d="M267.658,13.73l1.725,1.702c-2.085,2.085-4.554,3.128-7.406,3.128c-2.423,0-4.396-0.767-5.922-2.3
		c-1.526-1.533-2.289-3.427-2.289-5.681c0-2.223,0.76-4.105,2.277-5.646s3.458-2.312,5.819-2.312c1.334,0,2.625,0.242,3.875,0.725
		s2.304,1.124,3.163,1.92l-1.748,1.725c-0.66-0.628-1.469-1.131-2.427-1.507c-0.959-0.375-1.897-0.563-2.817-0.563
		c-1.61,0-2.918,0.549-3.922,1.645c-1.004,1.097-1.507,2.442-1.507,4.037s0.514,2.937,1.541,4.025
		c1.027,1.089,2.361,1.633,4.003,1.633c1.104,0,2.146-0.234,3.128-0.702C266.131,15.091,266.967,14.481,267.658,13.73z"/>
	<path fill="#FFFFFF" d="M275.409,18.1h-2.576V3.081h2.576v5.681h8.165V3.081h2.576V18.1h-2.576v-7.038h-8.165V18.1z"/>
	<path fill="#FFFFFF" d="M289.3,18.1l6.97-15.019h2.346l6.969,15.019h-2.829l-1.816-4.048h-7.153l-1.794,4.048H289.3z
		 M297.304,6.163l-2.599,5.819h5.312l-2.575-5.819H297.304z"/>
	<path fill="#FFFFFF" d="M308.735,3.081h2.576V15.8h9.224v2.3h-11.8V3.081z"/>
	<path fill="#FFFFFF" d="M323.616,3.081h2.576V15.8h9.224v2.3h-11.8V3.081z"/>
	<path fill="#FFFFFF" d="M346.846,9.107v2.3h-5.773V15.8h10.166v2.3h-12.742V3.081h12.19v2.3h-9.614v3.726H346.846z"/>
	<path fill="#FFFFFF" d="M365.89,3.081h2.576V18.1h-2.277l-8.671-10.419h-0.023V18.1h-2.576V3.081h2.277l8.671,10.419h0.023V3.081z"
		/>
	<path fill="#FFFFFF" d="M387.51,5.335l-1.794,1.61c-0.614-0.613-1.403-1.104-2.369-1.472s-1.901-0.552-2.807-0.552
		c-1.595,0-2.913,0.552-3.956,1.656c-1.042,1.104-1.563,2.446-1.563,4.025c0,1.549,0.51,2.879,1.529,3.991s2.435,1.667,4.243,1.667
		c0.798,0,1.61-0.111,2.438-0.333s1.487-0.518,1.978-0.886v-3.013h-4.715v-2.3h7.062v6.578c-0.951,0.69-2.047,1.238-3.289,1.645
		s-2.453,0.609-3.634,0.609c-2.361,0-4.336-0.774-5.923-2.323s-2.381-3.435-2.381-5.658c0-2.208,0.79-4.086,2.369-5.635
		s3.52-2.323,5.819-2.323c1.211,0,2.427,0.234,3.646,0.702S386.498,4.461,387.51,5.335z"/>
	<path fill="#FFFFFF" d="M400.528,9.107v2.3h-5.773V15.8h10.166v2.3h-12.742V3.081h12.19v2.3h-9.614v3.726H400.528z"/>
</g>
</svg>
